<?xml version="1.0" encoding="utf-8"?>
<!-- Generator: Adobe Illustrator 19.0.0, SVG Export Plug-In . SVG Version: 6.00 Build 0)  -->
<svg version="1.1" id="Layer_1" xmlns:x="&ns_extend;" xmlns:i="&ns_ai;" xmlns:graph="&ns_graphs;"
	 xmlns="http://www.w3.org/2000/svg" xmlns:xlink="http://www.w3.org/1999/xlink" x="0px" y="0px" viewBox="0 0 14 17"
	 style="enable-background:new 0 0 14 17;" xml:space="preserve">
<metadata>
	<sfw  xmlns="&ns_sfw;">
		<slices></slices>
		<sliceSourceBounds  width="14" height="17" x="0" y="0" bottomLeftOrigin="true"></sliceSourceBounds>
	</sfw>
</metadata>
<path d="M7,0C3.1,0,0,3.1,0,7c0,4.6,4.6,6.7,5.1,7.3c0.6,0.5,1.1,1.6,1.3,2.2C6.5,16.8,6.7,17,7,17c0.3,0,0.5-0.2,0.6-0.5
	c0.2-0.7,0.7-1.7,1.3-2.2C9.4,13.7,14,11.6,14,7C14,3.1,10.9,0,7,0 M7,9C5.9,9,5,8.1,5,7s0.9-2,2-2s2,0.9,2,2S8.1,9,7,9"/>
</svg>
